<svg xmlns="http://www.w3.org/2000/svg" xmlns:xlink="http://www.w3.org/1999/xlink" id="OBJECTS" x="0px" y="0px" viewBox="0 0 121.8 154.9" style="enable-background:new 0 0 121.8 154.9;" xml:space="preserve"><style type="text/css">	.st0{fill:none;stroke:#595959;stroke-linecap:round;stroke-linejoin:round;stroke-miterlimit:10;}	.st1{fill:#D8EAFD;stroke:#595959;stroke-linecap:round;stroke-linejoin:round;stroke-miterlimit:10;}	.st2{fill:#595959;stroke:#D8EAFD;stroke-miterlimit:10;}	.st3{fill:#595959;stroke:#D8EAFD;stroke-width:1.2;stroke-miterlimit:10;}	.st4{fill:url(#XMLID_00000097494999379636466320000017210479104199990949_);}	.st5{fill:url(#XMLID_00000078726608643441796650000004519331341053281464_);}	.st6{fill:url(#XMLID_00000154420672514881575500000005009858990958734270_);}	.st7{fill:url(#XMLID_00000085944842144627810640000001355092049742373031_);}	.st8{fill:url(#XMLID_00000113342338487504586520000014207741677314742434_);}	.st9{fill:url(#XMLID_00000143583269319614474820000017080394628515236027_);}	.st10{fill:url(#XMLID_00000017510192799095573880000003538758747123377293_);}	.st11{fill:url(#XMLID_00000068642993829272943540000011327630383761404596_);}	.st12{fill:none;stroke:#595959;stroke-linecap:round;stroke-linejoin:round;stroke-miterlimit:10;stroke-dasharray:5.1982,5.1982;}	.st13{fill:#595959;}	.st14{display:none;}	.st15{display:inline;}	.st16{fill:url(#XMLID_00000094577195072257353800000017212668698336853693_);}	.st17{fill:url(#XMLID_00000069379544614875486040000016476340227478701452_);}	.st18{fill:url(#XMLID_00000071523190024499531560000000531928792002787749_);}	.st19{fill:url(#XMLID_00000037685107789408921400000010496932126007858615_);}	.st20{fill:url(#XMLID_00000018231562305757737370000011438122657944063105_);}	.st21{fill:url(#XMLID_00000110441697978989027460000002842675228773987501_);}	.st22{fill:url(#XMLID_00000005248089585913583980000009344047369684750760_);}	.st23{fill:url(#XMLID_00000180342642350955457270000005541744131841527468_);}	.st24{fill:#595959;stroke:#FFFFFF;stroke-width:0.5;stroke-miterlimit:10;}	.st25{display:inline;fill:#595959;stroke:#FFFFFF;stroke-width:0.5;stroke-miterlimit:10;}	.st26{fill:url(#SVGID_1_);}	.st27{display:inline;fill:#D8EAFD;}	.st28{display:inline;fill:url(#SVGID_00000146495548562149067290000013356612717942421693_);}	.st29{display:inline;fill:#595959;}	.st30{fill:#FFFFFF;}	.st31{fill:url(#SVGID_00000033359323230776261040000004774177354477929116_);}	.st32{fill:url(#SVGID_00000081628531741151901780000012854132511906166144_);}	.st33{display:inline;fill:none;stroke:#595959;stroke-linecap:round;stroke-linejoin:round;stroke-miterlimit:10;}</style><g id="Cloud__x26__DevOps__Strategy_and_Consulting">	<path id="XMLID_00000007414478416447459090000008690218774580360083_" class="st0" d="M46.8,136.4v-5c0-0.5-0.4-0.9-0.9-0.9h-1.3  c-0.4,0-0.7-0.3-0.8-0.6c-0.4-2-1.2-3.8-2.2-5.4c-0.2-0.3-0.2-0.8,0.1-1l0.9-0.9c0.3-0.3,0.3-0.9,0-1.3l-3.6-3.6  c-0.3-0.3-0.9-0.3-1.3,0l-0.9,0.9c-0.3,0.3-0.7,0.3-1,0.1c-1.7-1-3.5-1.8-5.5-2.2c-0.4-0.1-0.6-0.4-0.6-0.8v-1.3  c0-0.5-0.4-0.9-0.9-0.9h-5c-0.5,0-0.9,0.4-0.9,0.9v1.3c0,0.4-0.3,0.7-0.6,0.8c-2,0.4-3.8,1.2-5.5,2.2c-0.3,0.2-0.8,0.2-1-0.1  l-0.9-0.9c-0.3-0.3-0.9-0.3-1.3,0l-3.6,3.6c-0.3,0.3-0.3,0.9,0,1.3l0.9,0.9c0.3,0.3,0.3,0.7,0.1,1c-1,1.7-1.8,3.5-2.2,5.5  c-0.1,0.4-0.4,0.6-0.8,0.6H6.7c-0.5,0-0.9,0.4-0.9,0.9v5c0,0.5,0.4,0.9,0.9,0.9H8c0.4,0,0.7,0.3,0.8,0.6c0.4,2,1.2,3.8,2.2,5.4  c0.2,0.3,0.2,0.8-0.1,1l-0.9,0.9c-0.3,0.3-0.3,0.9,0,1.3l3.6,3.6c0.3,0.3,0.9,0.3,1.3,0l0.9-0.9c0.3-0.3,0.7-0.3,1-0.1  c1.7,1,3.5,1.8,5.4,2.2c0.4,0.1,0.6,0.4,0.6,0.8v1.3c0,0.5,0.4,0.9,0.9,0.9h5c0.5,0,0.9-0.4,0.9-0.9v-1.3c0-0.4,0.3-0.7,0.6-0.8  c2-0.4,3.8-1.2,5.4-2.2c0.3-0.2,0.8-0.2,1,0.1l0.9,0.9c0.3,0.3,0.9,0.3,1.3,0l3.6-3.6c0.3-0.3,0.3-0.9,0-1.3l-0.9-0.9  c-0.3-0.3-0.3-0.7-0.1-1c1-1.7,1.8-3.5,2.2-5.4c0.1-0.4,0.4-0.6,0.8-0.6h1.3C46.4,137.3,46.8,136.9,46.8,136.4z M26.3,145.7  c-6.5,0-11.8-5.3-11.8-11.8c0-6.5,5.3-11.8,11.8-11.8c6.5,0,11.8,5.3,11.8,11.8C38.1,140.4,32.8,145.7,26.3,145.7z"></path>	<path id="XMLID_188_" class="st1" d="M115.3,135.9H75.4c-3.3,0-6-2.7-6-6v-21.7c0-3.3,2.7-6,6-6h39.8c3.3,0,6,2.7,6,6v21.7  C121.3,133.2,118.6,135.9,115.3,135.9z"></path>	<g id="XMLID_196_">		<path id="XMLID_197_" class="st2" d="M90.7,132.7c-0.1,0-0.2,0-0.4-0.1c-0.5-0.2-0.8-0.8-0.6-1.3l9.4-25.1   c0.2-0.5,0.8-0.8,1.3-0.6c0.5,0.2,0.8,0.8,0.6,1.3L91.7,132C91.5,132.4,91.1,132.7,90.7,132.7z"></path>	</g>	<g id="XMLID_189_">		<path id="XMLID_194_" class="st3" d="M86.8,128.3c-0.3,0-0.6-0.1-0.9-0.4l-7-7c-1.1-1.1-1.1-2.8,0-3.8l7.1-7.1   c0.5-0.5,1.2-0.5,1.7,0c0.5,0.5,0.5,1.2,0,1.7l-7.1,7.1c-0.1,0.1-0.1,0.3,0,0.4l7,7c0.5,0.5,0.5,1.2,0,1.7   C87.5,128.2,87.2,128.3,86.8,128.3z"></path>	</g>	<g id="XMLID_191_">		<path id="XMLID_192_" class="st3" d="M103.7,128.3c-0.3,0-0.6-0.1-0.9-0.4c-0.5-0.5-0.5-1.2,0-1.7l7.1-7.1c0.1-0.1,0.1-0.3,0-0.4   l-7-7c-0.5-0.5-0.5-1.2,0-1.7c0.5-0.5,1.2-0.5,1.7,0l7,7c1.1,1.1,1.1,2.8,0,3.8l-7.1,7.1C104.4,128.2,104.1,128.3,103.7,128.3z"></path>	</g>	<path class="st0" d="M111.7,36.2c0-0.5,0-1.1,0-1.6c0-18.8-15.3-34.1-34.1-34.1c-10.7,0-20.9,5.1-27.3,13.7  c-0.8-0.1-1.5-0.1-2.3-0.1c-10.3,0-19.6,6-23.8,15.3c-1.2-0.2-2.5-0.4-3.8-0.4C9.4,29,0.5,37.9,0.5,48.9s8.9,19.8,19.8,19.8h82.3  c9.6,0,17.5-7.8,17.5-17.5C120.2,45.1,116.9,39.4,111.7,36.2z"></path>	<g id="XMLID_00000131345366384340624370000017947829028207850635_">					<linearGradient id="XMLID_00000013871558940960304290000013479687937528361663_" gradientUnits="userSpaceOnUse" x1="33.9521" y1="42.4443" x2="91.6118" y2="42.4443">			<stop offset="0" style="stop-color:#0E4E97"></stop>			<stop offset="1" style="stop-color:#5CA5F7"></stop>		</linearGradient>					<path id="XMLID_00000092431254141813698740000006589547559242267012_" style="fill:url(#XMLID_00000013871558940960304290000013479687937528361663_);" d="   M49.1,57.1c-8.1,0-14.6-6.6-14.6-14.6c0-8.1,6.6-14.6,14.6-14.6c9.9,0,16.1,12.9,16.4,13.5l0.6,1.2l-0.6,1.2   C65.3,44.2,59,57.1,49.1,57.1z M49.1,33.3c-5.1,0-9.2,4.1-9.2,9.2c0,5.1,4.1,9.2,9.2,9.2c4.7,0,9-5.8,10.8-9.2   C58.1,39.1,53.9,33.3,49.1,33.3z"></path>					<linearGradient id="XMLID_00000109710027398315728940000001533477073847116206_" gradientUnits="userSpaceOnUse" x1="33.9521" y1="42.4443" x2="91.6119" y2="42.4443">			<stop offset="0" style="stop-color:#3949B2"></stop>			<stop offset="1" style="stop-color:#337AB7"></stop>		</linearGradient>					<path id="XMLID_00000080172570242288723080000004689646392130164143_" style="fill:url(#XMLID_00000109710027398315728940000001533477073847116206_);" d="   M77,57.1c-9.9,0-16.1-12.9-16.4-13.5L60,42.4l0.6-1.2c0.3-0.5,6.5-13.5,16.4-13.5c8.1,0,14.6,6.6,14.6,14.6   C91.6,50.5,85.1,57.1,77,57.1z M66.1,42.4c1.9,3.3,6.1,9.2,10.8,9.2c5.1,0,9.2-4.1,9.2-9.2c0-5.1-4.1-9.2-9.2-9.2   C72.3,33.3,68,39.1,66.1,42.4z"></path>					<linearGradient id="XMLID_00000008143238837773018150000017838496973170801591_" gradientUnits="userSpaceOnUse" x1="69.1634" y1="49.9473" x2="63.44" y2="44.4509">			<stop offset="0" style="stop-color:#CBE1F2;stop-opacity:0"></stop>			<stop offset="1" style="stop-color:#AED2ED"></stop>		</linearGradient>					<path id="XMLID_00000173134952201917787210000012440675207332335528_" style="fill:url(#XMLID_00000008143238837773018150000017838496973170801591_);" d="   M71.2,48.9l-3.4,4.2c-1.9-1.7-3.5-3.6-4.7-5.3l0,0c1.5-2.2,3.1-5.3,3.1-5.3C67.2,44.3,69,46.9,71.2,48.9z"></path>					<linearGradient id="XMLID_00000028327030735065727660000002741847929053081786_" gradientUnits="userSpaceOnUse" x1="57.4285" y1="34.0695" x2="61.9255" y2="41.0648">			<stop offset="0" style="stop-color:#CBE1F2;stop-opacity:0"></stop>			<stop offset="1" style="stop-color:#AED2ED"></stop>		</linearGradient>					<path id="XMLID_00000139295933154171953600000011259788340549657266_" style="fill:url(#XMLID_00000028327030735065727660000002741847929053081786_);" d="   M63.1,37.1c-1.5,2.2-3.1,5.3-3.1,5.3c-1-1.9-2.8-4.5-5-6.5l3.4-4.2C60.3,33.4,61.9,35.4,63.1,37.1z"></path>					<linearGradient id="XMLID_00000034049203364548883110000007670321407926875020_" gradientUnits="userSpaceOnUse" x1="68.5027" y1="33.4647" x2="79.1622" y2="31.2238">			<stop offset="0" style="stop-color:#CBE1F2;stop-opacity:0"></stop>			<stop offset="1" style="stop-color:#AED2ED"></stop>		</linearGradient>					<path id="XMLID_00000034805836435214406610000006755848231198252210_" style="fill:url(#XMLID_00000034049203364548883110000007670321407926875020_);" d="   M78.9,30.6L77,33.3c-2.6,0-5.1,1.8-7.2,4L67,32.4c2.6-2.5,6-4.6,10-4.6L78.9,30.6z"></path>					<linearGradient id="XMLID_00000044143119843348456920000016122636206207852734_" gradientUnits="userSpaceOnUse" x1="54.9703" y1="32.1857" x2="47.0665" y2="31.0501">			<stop offset="0" style="stop-color:#CBE1F2;stop-opacity:0"></stop>			<stop offset="1" style="stop-color:#AED2ED"></stop>		</linearGradient>					<path id="XMLID_00000127007353755524002600000018131647337429849787_" style="fill:url(#XMLID_00000044143119843348456920000016122636206207852734_);" d="   M58.8,32.1l-4,3.7c-1.7-1.5-3.6-2.6-5.7-2.6l-1.9-2.8l1.9-2.6C52.9,27.8,56.2,29.7,58.8,32.1z"></path>					<linearGradient id="XMLID_00000035517786512195297060000016826196880059793298_" gradientUnits="userSpaceOnUse" x1="42.1782" y1="51.9319" x2="50.4454" y2="54.1122">			<stop offset="0" style="stop-color:#CBE1F2;stop-opacity:0"></stop>			<stop offset="1" style="stop-color:#AED2ED"></stop>		</linearGradient>					<path id="XMLID_00000158737018033387716040000018396008829299422393_" style="fill:url(#XMLID_00000035517786512195297060000016826196880059793298_);" d="   M51.1,54.3l-1.9,2.8c-3.9,0-7.4-1.5-10-4l2.7-5.1c1.7,2.2,4.3,3.6,7.3,3.6L51.1,54.3z"></path>					<linearGradient id="XMLID_00000005232159665597239470000012209408035752321153_" gradientUnits="userSpaceOnUse" x1="84.9375" y1="52.0908" x2="76.3069" y2="53.9532">			<stop offset="0" style="stop-color:#CBE1F2;stop-opacity:0"></stop>			<stop offset="1" style="stop-color:#AED2ED"></stop>		</linearGradient>					<path id="XMLID_00000119812471211361256620000013656731073409577913_" style="fill:url(#XMLID_00000005232159665597239470000012209408035752321153_);" d="   M85.6,54.3c-2.4,1.8-5.4,2.8-8.6,2.8l-1.9-2.8l1.9-2.6c2.6,0,5-1.1,6.7-2.9L85.6,54.3z"></path>	</g>	<line class="st12" x1="26.3" y1="72.6" x2="26.3" y2="109.9"></line>	<line class="st12" x1="95.4" y1="72.6" x2="95.4" y2="100.2"></line>	<g>		<g>			<path class="st13" d="M63.7,79H34.8c-0.3,0-0.5-0.2-0.5-0.5c0-0.3,0.2-0.5,0.5-0.5h28.9c0.3,0,0.5,0.2,0.5,0.5    C64.2,78.8,63.9,79,63.7,79z"></path>		</g>	</g>	<g>		<g>			<path class="st13" d="M71.3,83h-19c-0.3,0-0.5-0.2-0.5-0.5c0-0.3,0.2-0.5,0.5-0.5h19c0.3,0,0.5,0.2,0.5,0.5    C71.8,82.8,71.5,83,71.3,83z"></path>		</g>	</g>	<g>		<g>			<path class="st13" d="M70.2,93c-0.2,0-0.3-0.1-0.4-0.2c-0.2-0.2-0.1-0.5,0.1-0.7l4.5-3.2l-4.5-3.5c-0.2-0.2-0.3-0.5-0.1-0.7    c0.2-0.2,0.5-0.3,0.7-0.1l5,3.9c0.1,0.1,0.2,0.2,0.2,0.4c0,0.2-0.1,0.3-0.2,0.4l-5,3.6C70.4,92.9,70.3,93,70.2,93z"></path>		</g>	</g>	<g>		<g>			<g>				<path class="st13" d="M46,107.4c-0.1,0-0.1,0-0.2,0c-3.5-1.6-5.8-5.2-5.8-9c0-5.5,4.5-9.9,9.9-9.9c5.5,0,9.9,4.5,9.9,9.9     c0,0.3-0.2,0.5-0.5,0.5c-0.3,0-0.5-0.2-0.5-0.5c0-4.9-4-8.9-8.9-8.9s-8.9,4-8.9,8.9c0,3.5,2,6.7,5.2,8.1     c0.3,0.1,0.4,0.4,0.2,0.7C46.4,107.3,46.2,107.4,46,107.4z"></path>			</g>		</g>		<g>			<g>				<path class="st13" d="M50,98.1c-0.3,0-0.5-0.2-0.5-0.5v-4.9c0-0.3,0.2-0.5,0.5-0.5c0.3,0,0.5,0.2,0.5,0.5v4.9     C50.5,97.9,50.3,98.1,50,98.1z"></path>			</g>		</g>		<g>			<g>				<path class="st13" d="M55.6,100h-3.9c-0.3,0-0.5-0.2-0.5-0.5c0-0.3,0.2-0.5,0.5-0.5h3.9c0.3,0,0.5,0.2,0.5,0.5     C56.1,99.8,55.8,100,55.6,100z"></path>			</g>		</g>		<g>			<g>				<path class="st13" d="M50,101.6c-1.2,0-2.1-0.9-2.1-2.1c0-1.2,0.9-2.1,2.1-2.1c1.2,0,2.1,0.9,2.1,2.1     C52.2,100.7,51.2,101.6,50,101.6z M50,98.4c-0.6,0-1.1,0.5-1.1,1.1c0,0.6,0.5,1.1,1.1,1.1c0.6,0,1.1-0.5,1.1-1.1     C51.2,98.9,50.7,98.4,50,98.4z"></path>			</g>		</g>	</g></g><g id="Professional__x26__Managed__DevOps_Services" class="st14">	<g id="XMLID_00000008843126521762414620000000810122943695360142_" class="st15">					<linearGradient id="XMLID_00000168834465383064412950000010018398042575348410_" gradientUnits="userSpaceOnUse" x1="-10.4853" y1="77.4426" x2="130.8725" y2="77.4426">			<stop offset="0" style="stop-color:#0E4E97"></stop>			<stop offset="1" style="stop-color:#5CA5F7"></stop>		</linearGradient>					<path id="XMLID_00000116947506808461551990000008160751151776291474_" style="fill:url(#XMLID_00000168834465383064412950000010018398042575348410_);" d="   M26.8,113.3C7,113.3-9.1,97.2-9.1,77.4c0-19.8,16.1-35.9,35.9-35.9c24.2,0,39.5,31.7,40.2,33l1.4,2.9l-1.4,2.9   C66.3,81.7,51,113.3,26.8,113.3z M26.8,54.9C14.4,54.9,4.3,65,4.3,77.4c0,12.4,10.1,22.5,22.5,22.5c11.6,0,22-14.3,26.6-22.5   C48.8,69.2,38.3,54.9,26.8,54.9z"></path>					<linearGradient id="XMLID_00000021101239202898138480000002431647919051285139_" gradientUnits="userSpaceOnUse" x1="-10.4853" y1="77.4426" x2="130.873" y2="77.4426">			<stop offset="0" style="stop-color:#3949B2"></stop>			<stop offset="1" style="stop-color:#337AB7"></stop>		</linearGradient>					<path id="XMLID_00000032610708902053633380000003114443645369680810_" style="fill:url(#XMLID_00000021101239202898138480000002431647919051285139_);" d="   M95,113.3c-24.2,0-39.5-31.7-40.2-33l-1.4-2.9l1.4-2.9c0.6-1.3,16-33,40.2-33c19.8,0,35.9,16.1,35.9,35.9   C130.9,97.2,114.8,113.3,95,113.3z M68.4,77.4C73,85.6,83.5,100,95,100c12.4,0,22.5-10.1,22.5-22.5c0-12.4-10.1-22.5-22.5-22.5   C83.5,54.9,73,69.2,68.4,77.4z"></path>					<linearGradient id="XMLID_00000041277519101705627830000004342928844835093421_" gradientUnits="userSpaceOnUse" x1="75.8385" y1="95.8367" x2="61.8069" y2="82.362">			<stop offset="0" style="stop-color:#CBE1F2;stop-opacity:0"></stop>			<stop offset="1" style="stop-color:#AED2ED"></stop>		</linearGradient>					<path id="XMLID_00000107570520614192076010000013388426549850979741_" style="fill:url(#XMLID_00000041277519101705627830000004342928844835093421_);" d="   M80.7,93.3l-8.4,10.3c-4.7-4.1-8.5-8.9-11.4-13.1l0,0c3.7-5.4,7.5-13.1,7.5-13.1C71,82,75.4,88.5,80.7,93.3z"></path>					<linearGradient id="XMLID_00000166668038860675762180000002250319650947622796_" gradientUnits="userSpaceOnUse" x1="47.0691" y1="56.9109" x2="58.0939" y2="74.0606">			<stop offset="0" style="stop-color:#CBE1F2;stop-opacity:0"></stop>			<stop offset="1" style="stop-color:#AED2ED"></stop>		</linearGradient>					<path id="XMLID_00000031171970748327821770000007094129948185121702_" style="fill:url(#XMLID_00000166668038860675762180000002250319650947622796_);" d="   M60.9,64.4c-3.7,5.4-7.5,13.1-7.5,13.1c-2.6-4.6-6.9-11-12.3-15.9l8.4-10.3C54.2,55.4,58,60.2,60.9,64.4z"></path>					<linearGradient id="XMLID_00000048475702788578084510000008082731983866408377_" gradientUnits="userSpaceOnUse" x1="74.2186" y1="55.4283" x2="100.3514" y2="49.9345">			<stop offset="0" style="stop-color:#CBE1F2;stop-opacity:0"></stop>			<stop offset="1" style="stop-color:#AED2ED"></stop>		</linearGradient>					<path id="XMLID_00000098927598997445786020000017866038373688079293_" style="fill:url(#XMLID_00000048475702788578084510000008082731983866408377_);" d="   M99.7,48.5L95,54.9c-6.5,0-12.6,4.5-17.6,9.9l-6.9-12c6.5-6.2,14.7-11.3,24.4-11.3L99.7,48.5z"></path>					<linearGradient id="XMLID_00000155833234033261079730000011328351420888120718_" gradientUnits="userSpaceOnUse" x1="41.0428" y1="52.2927" x2="21.6659" y2="49.5087">			<stop offset="0" style="stop-color:#CBE1F2;stop-opacity:0"></stop>			<stop offset="1" style="stop-color:#AED2ED"></stop>		</linearGradient>					<path id="XMLID_00000061473889384293962330000018196997418124737161_" style="fill:url(#XMLID_00000155833234033261079730000011328351420888120718_);" d="   M50.4,52l-9.7,9.2c-4.2-3.6-8.9-6.3-13.9-6.3L22.1,48l4.7-6.4C36,41.6,44,46.2,50.4,52z"></path>					<linearGradient id="XMLID_00000103963444103052959380000016535671767394526090_" gradientUnits="userSpaceOnUse" x1="9.6818" y1="100.7022" x2="29.9496" y2="106.0476">			<stop offset="0" style="stop-color:#CBE1F2;stop-opacity:0"></stop>			<stop offset="1" style="stop-color:#AED2ED"></stop>		</linearGradient>					<path id="XMLID_00000121279018229484530970000001474120700925306756_" style="fill:url(#XMLID_00000103963444103052959380000016535671767394526090_);" d="   M31.4,106.4l-4.7,6.9c-9.5,0-18.2-3.7-24.6-9.8l6.7-12.4c4.1,5.3,10.6,8.8,17.8,8.8L31.4,106.4z"></path>					<linearGradient id="XMLID_00000072958839026257452650000005870230043255576742_" gradientUnits="userSpaceOnUse" x1="114.5101" y1="101.0919" x2="93.3514" y2="105.6577">			<stop offset="0" style="stop-color:#CBE1F2;stop-opacity:0"></stop>			<stop offset="1" style="stop-color:#AED2ED"></stop>		</linearGradient>					<path id="XMLID_00000177466651007456674500000011212201554020924591_" style="fill:url(#XMLID_00000072958839026257452650000005870230043255576742_);" d="   M116.1,106.4c-5.9,4.3-13.2,6.9-21.1,6.9l-4.7-6.9L95,100c6.4,0,12.2-2.7,16.3-7L116.1,106.4z"></path>	</g>	<g class="st15">		<path d="M23.3,77.5c0,3-2,4.9-5.2,4.9h-3.4v-9.8h3.4C21.3,72.6,23.3,74.5,23.3,77.5z M18.1,80.7c2.1,0,3.2-1.2,3.2-3.2   c0-2-1.2-3.2-3.2-3.2h-1.4v6.5H18.1z"></path>		<path d="M28.2,82.5c-2.3,0-3.9-1.6-3.9-4c0-2.5,1.6-4,3.9-4c2.2,0,3.8,1.5,3.8,3.8c0,0.3,0,0.5-0.1,0.8h-5.7   c0.1,1.1,0.9,1.8,1.9,1.8c0.8,0,1.3-0.4,1.6-0.9h2.1C31.4,81.4,30.1,82.5,28.2,82.5z M26.3,77.8h3.7c0-1-0.8-1.7-1.8-1.7   C27.2,76.1,26.4,76.7,26.3,77.8z"></path>		<path d="M34.7,74.6l2,6l2-6h2.1l-2.9,7.8h-2.4l-2.9-7.8H34.7z"></path>	</g>	<g class="st15">		<path d="M85.3,82.5c-2.8,0-5-2.1-5-5c0-2.9,2.3-5,5-5c2.8,0,5,2.1,5,5C90.3,80.4,88.1,82.5,85.3,82.5z M85.3,80.7   c1.8,0,3-1.3,3-3.3c0-2-1.2-3.2-3-3.2c-1.8,0-3,1.2-3,3.2C82.3,79.4,83.6,80.7,85.3,80.7z"></path>		<path d="M96.3,74.5c2,0,3.5,1.6,3.5,4c0,2.4-1.6,4-3.5,4c-1.2,0-2.1-0.6-2.6-1.2v4.8h-2V74.6h2v1.1C94.2,75.1,95.1,74.5,96.3,74.5   z M95.8,76.2c-1.1,0-2,0.8-2,2.3s1,2.3,2,2.3c1.1,0,2.1-0.8,2.1-2.3S96.9,76.2,95.8,76.2z"></path>		<path d="M104.3,82.5c-1.9,0-3.3-1.1-3.4-2.6h2c0.1,0.6,0.6,1,1.4,1c0.8,0,1.2-0.3,1.2-0.8c0-1.4-4.4-0.5-4.4-3.3   c0-1.3,1.1-2.3,3.1-2.3c1.9,0,3,1,3.1,2.6h-1.9c-0.1-0.6-0.5-1-1.3-1c-0.7,0-1.1,0.3-1.1,0.7c0,1.4,4.3,0.5,4.4,3.4   C107.3,81.5,106.1,82.5,104.3,82.5z"></path>	</g></g><g id="Cloud_Migration" class="st14">	<g class="st15">		<g>			<path class="st24" d="M12,93.5h-26.3c-2.6,0-4.6-2.1-4.6-4.6V48.3c0-2.6,2.1-4.6,4.6-4.6H12c2.6,0,4.6,2.1,4.6,4.6v40.6    C16.7,91.4,14.6,93.5,12,93.5z M-14.3,45.2c-1.7,0-3.1,1.4-3.1,3.1v40.6c0,1.7,1.4,3.1,3.1,3.1H12c1.7,0,3.1-1.4,3.1-3.1V48.3    c0-1.7-1.4-3.1-3.1-3.1H-14.3z"></path>		</g>	</g>	<g class="st15">		<rect x="-12.9" y="52.3" class="st0" width="23.5" height="32.5"></rect>	</g>	<g class="st15">		<g>			<path class="st24" d="M137.6,87.6h-16.5c-1.7,0-3-1.4-3-3V52.8c0-1.7,1.4-3,3-3h16.5c1.7,0,3,1.4,3,3v31.7    C140.7,86.2,139.3,87.6,137.6,87.6z M121.2,51.4c-0.8,0-1.5,0.7-1.5,1.5v31.7c0,0.8,0.7,1.5,1.5,1.5h16.5c0.8,0,1.5-0.7,1.5-1.5    V52.8c0-0.8-0.7-1.5-1.5-1.5H121.2z"></path>		</g>	</g>	<g class="st15">		<rect x="122.8" y="57.1" class="st0" width="13.3" height="22.8"></rect>	</g>	<path class="st25" d="M58.5,69.5h-1.9c-0.4,0-0.8-0.3-0.8-0.8c0-0.4,0.3-0.8,0.8-0.8h1.9c0.4,0,0.8,0.3,0.8,0.8  C59.3,69.1,59,69.5,58.5,69.5z M52.7,69.5h-1.9c-0.4,0-0.8-0.3-0.8-0.8c0-0.4,0.3-0.8,0.8-0.8h1.9c0.4,0,0.8,0.3,0.8,0.8  C53.5,69.1,53.1,69.5,52.7,69.5z M46.9,69.5h-1.9c-0.4,0-0.8-0.3-0.8-0.8c0-0.4,0.3-0.8,0.8-0.8h1.9c0.4,0,0.8,0.3,0.8,0.8  C47.7,69.1,47.3,69.5,46.9,69.5z M41,69.5h-1.9c-0.4,0-0.8-0.3-0.8-0.8c0-0.4,0.3-0.8,0.8-0.8H41c0.4,0,0.8,0.3,0.8,0.8  C41.8,69.1,41.5,69.5,41,69.5z M35.2,69.5h-1.9c-0.4,0-0.8-0.3-0.8-0.8c0-0.4,0.3-0.8,0.8-0.8h1.9c0.4,0,0.8,0.3,0.8,0.8  C36,69.1,35.6,69.5,35.2,69.5z"></path>	<path class="st25" d="M29.4,69.5h-1.9c-0.4,0-0.8-0.3-0.8-0.8c0-0.4,0.3-0.8,0.8-0.8h1.9c0.4,0,0.8,0.3,0.8,0.8  C30.2,69.1,29.8,69.5,29.4,69.5z"></path>	<path class="st25" d="M106.2,69.5h-1.9c-0.4,0-0.8-0.3-0.8-0.8c0-0.4,0.3-0.8,0.8-0.8h1.9c0.4,0,0.8,0.3,0.8,0.8  C107,69.1,106.6,69.5,106.2,69.5z"></path>	<g class="st15">		<g>			<g>				<path class="st24" d="M99.9,69.5h-2.3c-0.4,0-0.8-0.3-0.8-0.8c0-0.4,0.3-0.8,0.8-0.8h2.3c0.4,0,0.8,0.3,0.8,0.8     C100.7,69.1,100.4,69.5,99.9,69.5z M93.1,69.5h-2.3c-0.4,0-0.8-0.3-0.8-0.8c0-0.4,0.3-0.8,0.8-0.8h2.3c0.4,0,0.8,0.3,0.8,0.8     C93.8,69.1,93.5,69.5,93.1,69.5z M86.2,69.5h-2.3c-0.4,0-0.8-0.3-0.8-0.8c0-0.4,0.3-0.8,0.8-0.8h2.3c0.4,0,0.8,0.3,0.8,0.8     C87,69.1,86.6,69.5,86.2,69.5z M79.4,69.5h-2.3c-0.4,0-0.8-0.3-0.8-0.8c0-0.4,0.3-0.8,0.8-0.8h2.3c0.4,0,0.8,0.3,0.8,0.8     C80.1,69.1,79.8,69.5,79.4,69.5z"></path>			</g>		</g>	</g>	<g class="st15">		<g>			<path class="st24" d="M67.1,62.2c-0.4,0-0.8-0.3-0.8-0.8v-2.1c0-0.4,0.3-0.8,0.8-0.8c0.4,0,0.8,0.3,0.8,0.8v2.1    C67.9,61.8,67.6,62.2,67.1,62.2z"></path>		</g>	</g>	<g class="st15">		<g>			<path class="st24" d="M67.1,56.9c-0.4,0-0.8-0.3-0.8-0.8V54c0-0.4,0.3-0.8,0.8-0.8c0.4,0,0.8,0.3,0.8,0.8v2.1    C67.9,56.5,67.6,56.9,67.1,56.9z"></path>		</g>	</g>	<g class="st15">		<g>			<path class="st24" d="M67.9,76v2.1c0,0.4-0.3,0.8-0.8,0.8c-0.4,0-0.8-0.3-0.8-0.8V76c0-0.4,0.3-0.8,0.8-0.8    C67.6,75.2,67.9,75.6,67.9,76z"></path>		</g>	</g>	<g class="st15">		<g>			<path class="st24" d="M103.9,139H30c-3.2,0-5.8-2.6-5.8-5.8v-47c0-3.2,2.6-5.8,5.8-5.8h74c3.2,0,5.8,2.6,5.8,5.8v47    C109.8,136.4,107.1,139,103.9,139z M30,81.9c-2.4,0-4.3,1.9-4.3,4.3v47c0,2.4,1.9,4.3,4.3,4.3h74c2.4,0,4.3-1.9,4.3-4.3v-47    c0-2.4-1.9-4.3-4.3-4.3H30z"></path>		</g>	</g>	<g class="st15">		<g>			<path class="st24" d="M104.6,134.8H29.3c-0.4,0-0.8-0.3-0.8-0.8V85.4c0-0.4,0.3-0.8,0.8-0.8h75.4c0.4,0,0.8,0.3,0.8,0.8V134    C105.4,134.4,105.1,134.8,104.6,134.8z M30,133.2h73.8v-47H30V133.2z"></path>		</g>	</g>	<g class="st15">		<polygon class="st0" points="55.4,141.6 50.3,152.7 83.5,152.7 78.5,141.6   "></polygon>	</g>	<g class="st15">		<path class="st1" d="M79.7,100.8H67.8c-0.7,0-1.4-0.3-2-0.7h0l-4.1-3.4c-0.3-0.2-0.6-0.4-1-0.4h-6.5c-0.9,0-1.6,0.7-1.6,1.6v23.8   c0,0.9,0.7,1.6,1.6,1.6h25.5c0.9,0,1.6-0.7,1.6-1.6v-19.2C81.3,101.5,80.6,100.8,79.7,100.8z"></path>	</g>	<g class="st15">		<g>			<path class="st24" d="M83,117.5H50.8c-0.4,0-0.8-0.3-0.8-0.8c0-0.4,0.3-0.8,0.8-0.8H83c0.4,0,0.8,0.3,0.8,0.8    C83.8,117.1,83.5,117.5,83,117.5z"></path>		</g>	</g>	<g class="st15">		<g>			<path class="st24" d="M88.9,153.6H45.6c-0.4,0-0.8-0.3-0.8-0.8c0-0.4,0.3-0.8,0.8-0.8h43.3c0.4,0,0.8,0.3,0.8,0.8    C89.7,153.2,89.3,153.6,88.9,153.6z"></path>		</g>	</g>	<g class="st15">		<linearGradient id="SVGID_1_" gradientUnits="userSpaceOnUse" x1="30.6534" y1="26.381" x2="105.2334" y2="26.381">			<stop offset="0" style="stop-color:#0E4E97"></stop>			<stop offset="0.216" style="stop-color:#1B5CA6"></stop>			<stop offset="0.6325" style="stop-color:#3B80CF"></stop>			<stop offset="1" style="stop-color:#5CA5F7"></stop>		</linearGradient>		<path class="st26" d="M41.4,51.4h53c5.9,0,10.8-4.8,10.8-10.8c0-5.9-4.8-10.8-10.8-10.8H92c-0.4,0-0.6-0.3-0.7-0.6   C91.1,23,86.3,17.8,80,17.2c-0.3,0-0.5-0.2-0.6-0.5c-2.4-9-10.5-15.4-19.9-15.4C48.3,1.3,39,10.5,39,21.9c0,2.5,0.4,4.9,1.3,7.2   c0.1,0.2,0.1,0.4,0,0.6C40.2,29.9,40,30,39.8,30c-5.2,0.8-9.2,5.4-9.2,10.7C30.7,46.6,35.5,51.4,41.4,51.4z"></path>	</g>	<g class="st15">		<g>			<path class="st24" d="M67.1,73.2c-2.5,0-4.5-2-4.5-4.5c0-2.5,2-4.5,4.5-4.5c2.5,0,4.5,2,4.5,4.5C71.6,71.2,69.6,73.2,67.1,73.2z     M67.1,65.8c-1.6,0-2.9,1.3-2.9,2.9c0,1.6,1.3,2.9,2.9,2.9s2.9-1.3,2.9-2.9C70,67.1,68.7,65.8,67.1,65.8z"></path>		</g>	</g>	<g class="st15">		<g>			<path class="st24" d="M22.6,71.7c-1.7,0-3-1.4-3-3c0-1.7,1.4-3,3-3c1.7,0,3,1.4,3,3C25.7,70.4,24.3,71.7,22.6,71.7z M22.6,67.2    c-0.8,0-1.5,0.7-1.5,1.5c0,0.8,0.7,1.5,1.5,1.5c0.8,0,1.5-0.7,1.5-1.5C24.1,67.9,23.4,67.2,22.6,67.2z"></path>		</g>	</g>	<g class="st15">		<g>			<path class="st24" d="M111.8,71.7c-1.7,0-3-1.4-3-3c0-1.7,1.4-3,3-3c1.7,0,3,1.4,3,3C114.8,70.4,113.5,71.7,111.8,71.7z     M111.8,67.2c-0.8,0-1.5,0.7-1.5,1.5c0,0.8,0.7,1.5,1.5,1.5c0.8,0,1.5-0.7,1.5-1.5C113.3,67.9,112.6,67.2,111.8,67.2z"></path>		</g>	</g></g><g class="st14">	<g class="st15">		<g>			<g>				<path class="st13" d="M106.4,57.8H45.1c-0.3,0-0.5-0.2-0.5-0.5c0-0.3,0.2-0.5,0.5-0.5h60.8V43.4c0-1.3-1-2.3-2.3-2.3H18.2     c-1.3,0-2.3,1-2.3,2.3v13.5l3.6,0c0-0.3,0.2-0.5,0.5-0.5s0.5,0.2,0.5,0.5v0.5c0,0.3-0.2,0.5-0.5,0.5h-4.6     c-0.3,0-0.5-0.2-0.5-0.5v-14c0-1.8,1.5-3.3,3.3-3.3h85.3c1.8,0,3.3,1.5,3.3,3.3v14C106.9,57.6,106.6,57.8,106.4,57.8z"></path>			</g>		</g>	</g>	<g class="st15">		<g>			<g>				<path class="st13" d="M103.5,114.8H18.2c-1.8,0-3.3-1.5-3.3-3.3V57.3c0-0.3,0.2-0.5,0.5-0.5h4.1c0,0,0,0,0,0v-4.2     c0-1.1,0.9-1.9,1.9-1.9h22.3c1.1,0,1.9,0.9,1.9,1.9v4.2h60.8c0.3,0,0.5,0.2,0.5,0.5v54.2C106.9,113.3,105.4,114.8,103.5,114.8z      M15.9,57.8v53.7c0,1.3,1,2.3,2.3,2.3h85.3c1.3,0,2.3-1,2.3-2.3V57.8H45.1c-0.3,0-0.5-0.2-0.5-0.5l0-4.7c0-0.5-0.4-0.9-0.9-0.9     H21.4c-0.5,0-0.9,0.4-0.9,0.9v4.2c0,0.2-0.1,0.4-0.3,0.4c0,0,0,0,0,0.1c0,0.3-0.2,0.5-0.5,0.5H15.9z"></path>			</g>		</g>	</g>	<g class="st15">		<g>			<g>				<path class="st13" d="M24.3,48.7c-1.2,0-2.2-1-2.2-2.2c0-1.2,1-2.2,2.2-2.2c1.2,0,2.2,1,2.2,2.2C26.5,47.7,25.5,48.7,24.3,48.7z      M24.3,45.4c-0.6,0-1.2,0.5-1.2,1.2c0,0.6,0.5,1.2,1.2,1.2c0.6,0,1.2-0.5,1.2-1.2C25.5,45.9,24.9,45.4,24.3,45.4z"></path>			</g>		</g>		<g>			<g>				<path class="st13" d="M31.3,48.7c-1.2,0-2.2-1-2.2-2.2c0-1.2,1-2.2,2.2-2.2c1.2,0,2.2,1,2.2,2.2C33.5,47.7,32.5,48.7,31.3,48.7z      M31.3,45.4c-0.6,0-1.2,0.5-1.2,1.2c0,0.6,0.5,1.2,1.2,1.2s1.2-0.5,1.2-1.2C32.5,45.9,32,45.4,31.3,45.4z"></path>			</g>		</g>		<g>			<g>				<path class="st13" d="M38.4,48.7c-1.2,0-2.2-1-2.2-2.2c0-1.2,1-2.2,2.2-2.2c1.2,0,2.2,1,2.2,2.2C40.5,47.7,39.6,48.7,38.4,48.7z      M38.4,45.4c-0.6,0-1.2,0.5-1.2,1.2c0,0.6,0.5,1.2,1.2,1.2c0.6,0,1.2-0.5,1.2-1.2C39.5,45.9,39,45.4,38.4,45.4z"></path>			</g>		</g>	</g>	<g class="st15">		<g>			<path class="st13" d="M73.9,57.8H47.8v-5.1c0-1.1,0.9-1.9,1.9-1.9H72c1.1,0,1.9,0.9,1.9,1.9V57.8z M48.8,56.8h24.1v-4.1    c0-0.5-0.4-0.9-0.9-0.9H49.7c-0.5,0-0.9,0.4-0.9,0.9V56.8z"></path>		</g>	</g>	<g class="st15">		<g>			<path class="st13" d="M101.8,57.8H75.6v-5.1c0-1.1,0.9-1.9,1.9-1.9h22.3c1.1,0,1.9,0.9,1.9,1.9V57.8z M76.6,56.8h24.1v-4.1    c0-0.5-0.4-0.9-0.9-0.9H77.6c-0.5,0-0.9,0.4-0.9,0.9V56.8z"></path>		</g>	</g>	<g class="st15">		<g>			<path class="st13" d="M32.1,105.4h-5c-0.8,0-1.5-0.7-1.5-1.5V80.3c0-0.8,0.7-1.5,1.5-1.5h5c0.8,0,1.5,0.7,1.5,1.5v23.6    C33.6,104.7,32.9,105.4,32.1,105.4z M27.1,79.8c-0.3,0-0.5,0.2-0.5,0.5v23.6c0,0.3,0.2,0.5,0.5,0.5h5c0.3,0,0.5-0.2,0.5-0.5V80.3    c0-0.3-0.2-0.5-0.5-0.5H27.1z"></path>		</g>	</g>	<g class="st15">		<g>			<path class="st13" d="M42.7,105.4h-4.3c-1,0-1.8-0.8-1.8-1.8V82c0-1,0.8-1.8,1.8-1.8h4.3c1,0,1.8,0.8,1.8,1.8v21.6    C44.6,104.6,43.7,105.4,42.7,105.4z M38.4,81.2c-0.5,0-0.8,0.4-0.8,0.8v21.6c0,0.5,0.4,0.8,0.8,0.8h4.3c0.5,0,0.8-0.4,0.8-0.8V82    c0-0.5-0.4-0.8-0.8-0.8H38.4z"></path>		</g>	</g>	<g class="st15">		<g>			<path class="st13" d="M53.6,105.4h-4.1c-1,0-1.8-0.8-1.8-1.8v-9.2c0-1,0.8-1.8,1.8-1.8h4.1c1,0,1.8,0.8,1.8,1.8v9.2    C55.4,104.6,54.6,105.4,53.6,105.4z M49.5,93.7c-0.4,0-0.8,0.4-0.8,0.8v9.2c0,0.4,0.4,0.8,0.8,0.8h4.1c0.4,0,0.8-0.4,0.8-0.8    v-9.2c0-0.4-0.4-0.8-0.8-0.8H49.5z"></path>		</g>	</g>	<g class="st15">		<g>			<path class="st13" d="M64.7,105.4h-4.3c-1,0-1.8-0.8-1.8-1.8V82c0-1,0.8-1.8,1.8-1.8h4.3c1,0,1.8,0.8,1.8,1.8v21.6    C66.5,104.6,65.7,105.4,64.7,105.4z M60.4,81.2c-0.5,0-0.8,0.4-0.8,0.8v21.6c0,0.5,0.4,0.8,0.8,0.8h4.3c0.5,0,0.8-0.4,0.8-0.8V82    c0-0.5-0.4-0.8-0.8-0.8H60.4z"></path>		</g>	</g>	<g class="st15">		<g>			<path class="st13" d="M75.7,105.4h-4.3c-1,0-1.8-0.8-1.8-1.8V88.7c0-1,0.8-1.8,1.8-1.8h4.3c1,0,1.8,0.8,1.8,1.8v14.9    C77.5,104.6,76.7,105.4,75.7,105.4z M71.4,87.9c-0.5,0-0.8,0.4-0.8,0.8v14.9c0,0.5,0.4,0.8,0.8,0.8h4.3c0.5,0,0.8-0.4,0.8-0.8    V88.7c0-0.5-0.4-0.8-0.8-0.8H71.4z"></path>		</g>	</g>	<g class="st15">		<g>			<path class="st13" d="M86.7,105.4h-4.3c-1,0-1.8-0.8-1.8-1.8V70c0-1,0.8-1.8,1.8-1.8h4.3c1,0,1.8,0.8,1.8,1.8v33.6    C88.5,104.6,87.7,105.4,86.7,105.4z M82.4,69.1c-0.5,0-0.8,0.4-0.8,0.8v33.6c0,0.5,0.4,0.8,0.8,0.8h4.3c0.5,0,0.8-0.4,0.8-0.8V70    c0-0.5-0.4-0.8-0.8-0.8H82.4z"></path>		</g>	</g>	<g class="st15">		<g>			<path class="st13" d="M97.7,105.4h-4.3c-1,0-1.8-0.8-1.8-1.8V67.3c0-1,0.8-1.8,1.8-1.8h4.3c1,0,1.8,0.8,1.8,1.8v36.3    C99.5,104.6,98.7,105.4,97.7,105.4z M93.4,66.5c-0.5,0-0.8,0.4-0.8,0.8v36.3c0,0.5,0.4,0.8,0.8,0.8h4.3c0.5,0,0.8-0.4,0.8-0.8    V67.3c0-0.5-0.4-0.8-0.8-0.8H93.4z"></path>		</g>	</g>	<g class="st15">		<g>			<path class="st13" d="M99.3,109.4H21.4c-0.3,0-0.5-0.2-0.5-0.5V65.8c0-0.3,0.2-0.5,0.5-0.5c0.3,0,0.5,0.2,0.5,0.5v42.7h77.4    c0.3,0,0.5,0.2,0.5,0.5C99.8,109.2,99.6,109.4,99.3,109.4z"></path>		</g>	</g></g><g class="st14">	<path class="st27" d="M1.1,118c-12.4,0-22.6,10.1-22.6,22.6c0,12.4,10.1,22.6,22.6,22.6c12.4,0,22.6-10.1,22.6-22.6  C23.7,128.1,13.6,118,1.1,118z"></path>	<g class="st15">		<rect x="89.4" y="129.8" class="st0" width="40" height="40"></rect>	</g>			<linearGradient id="SVGID_00000026842700306096497790000013050387539776274327_" gradientUnits="userSpaceOnUse" x1="97.2596" y1="6.7359" x2="143.1935" y2="6.7359">		<stop offset="0" style="stop-color:#0E4E97"></stop>		<stop offset="0.216" style="stop-color:#1B5CA6"></stop>		<stop offset="0.6325" style="stop-color:#3B80CF"></stop>		<stop offset="1" style="stop-color:#5CA5F7"></stop>	</linearGradient>	<path style="display:inline;fill:url(#SVGID_00000026842700306096497790000013050387539776274327_);" d="M139.2-8.2h-17.7  c-0.7,0-1.4-0.2-1.9-0.7c0,0,0,0,0,0l-6.1-5.1c-0.7-0.6-1.6-0.9-2.5-0.9h-9.7c-2.2,0-4,1.8-4,4v35.4c0,2.2,1.8,4,4,4h38  c2.2,0,4-1.8,4-4V-4.2C143.2-6.4,141.4-8.2,139.2-8.2z"></path>	<g class="st15">		<g>			<g>				<path class="st13" d="M1.1,163.1c-12.4,0-22.6-10.1-22.6-22.6c0-12.4,10.1-22.6,22.6-22.6c12.4,0,22.6,10.1,22.6,22.6     C23.7,153,13.6,163.1,1.1,163.1z M1.1,119c-11.9,0-21.6,9.7-21.6,21.6c0,11.9,9.7,21.6,21.6,21.6s21.6-9.7,21.6-21.6     C22.7,128.7,13,119,1.1,119z"></path>			</g>		</g>		<g>			<g>				<path class="st13" d="M1.1,160.4c-10.9,0-19.8-8.9-19.8-19.8c0-10.9,8.9-19.8,19.8-19.8s19.8,8.9,19.8,19.8     C20.9,151.5,12.1,160.4,1.1,160.4z M1.1,121.8c-10.4,0-18.8,8.4-18.8,18.8c0,10.4,8.4,18.8,18.8,18.8c10.4,0,18.8-8.4,18.8-18.8     C19.9,130.2,11.5,121.8,1.1,121.8z"></path>			</g>		</g>		<g>			<g>				<path class="st13" d="M-10.7,130.7c-0.8,0-1.4-0.6-1.4-1.4c0-0.8,0.6-1.4,1.4-1.4c0.8,0,1.4,0.6,1.4,1.4     C-9.3,130.1-9.9,130.7-10.7,130.7z M-10.7,128.9c-0.2,0-0.4,0.2-0.4,0.4c0,0.2,0.2,0.4,0.4,0.4c0.2,0,0.4-0.2,0.4-0.4     C-10.3,129.1-10.5,128.9-10.7,128.9z"></path>			</g>		</g>		<g>			<g>				<path class="st13" d="M-11.9,142.2h-2.7c-0.7,0-1.2-0.5-1.2-1.2v-0.9c0-0.7,0.5-1.2,1.2-1.2h2.7c0.7,0,1.2,0.5,1.2,1.2v0.9     C-10.7,141.7-11.3,142.2-11.9,142.2z M-14.6,139.9c-0.1,0-0.2,0.1-0.2,0.2v0.9c0,0.1,0.1,0.2,0.2,0.2h2.7c0.1,0,0.2-0.1,0.2-0.2     v-0.9c0-0.1-0.1-0.2-0.2-0.2H-14.6z"></path>			</g>		</g>		<g>			<g>				<path class="st13" d="M17.4,142.2h-2.7c-0.7,0-1.2-0.5-1.2-1.2v-0.9c0-0.7,0.5-1.2,1.2-1.2h2.7c0.7,0,1.2,0.5,1.2,1.2v0.9     C18.6,141.7,18,142.2,17.4,142.2z M14.7,139.9c-0.1,0-0.2,0.1-0.2,0.2v0.9c0,0.1,0.1,0.2,0.2,0.2h2.7c0.1,0,0.2-0.1,0.2-0.2     v-0.9c0-0.1-0.1-0.2-0.2-0.2H14.7z"></path>			</g>		</g>		<g>			<g>				<path class="st13" d="M1.1,128.4c-0.9,0-1.6-0.7-1.6-1.6v-1.8c0-0.9,0.7-1.6,1.6-1.6s1.6,0.7,1.6,1.6v1.8     C2.8,127.6,2,128.4,1.1,128.4z M1.1,124.3c-0.4,0-0.6,0.3-0.6,0.6v1.8c0,0.4,0.3,0.6,0.6,0.6c0.4,0,0.6-0.3,0.6-0.6v-1.8     C1.8,124.6,1.5,124.3,1.1,124.3z"></path>			</g>		</g>		<g>			<g>				<path class="st13" d="M13.4,130.7c-0.8,0-1.4-0.6-1.4-1.4c0-0.8,0.6-1.4,1.4-1.4c0.8,0,1.4,0.6,1.4,1.4     C14.8,130.1,14.1,130.7,13.4,130.7z M13.4,128.9c-0.2,0-0.4,0.2-0.4,0.4c0,0.2,0.2,0.4,0.4,0.4c0.2,0,0.4-0.2,0.4-0.4     C13.8,129.1,13.6,128.9,13.4,128.9z"></path>			</g>		</g>		<g>			<g>				<path class="st13" d="M1.1,149c-4.7,0-8.5-3.8-8.5-8.5c0-4.7,3.8-8.5,8.5-8.5c2.9,0,5.5,1.4,7.1,3.9c0.2,0.2,0.1,0.5-0.1,0.7     c-0.2,0.1-0.5,0.1-0.7-0.1c-1.4-2.1-3.7-3.4-6.3-3.4c-4.1,0-7.5,3.4-7.5,7.5c0,4.1,3.4,7.5,7.5,7.5s7.5-3.4,7.5-7.5     c0-0.6-0.1-1.2-0.2-1.7c-0.1-0.3,0.1-0.5,0.4-0.6c0.3-0.1,0.5,0.1,0.6,0.4c0.1,0.6,0.2,1.3,0.2,1.9C9.6,145.2,5.8,149,1.1,149z"></path>			</g>		</g>		<g>			<g>				<path class="st13" d="M4.1,140.9c-0.2,0-0.4-0.1-0.5-0.3c-0.1-0.3,0-0.5,0.3-0.7l12.3-5.4l0.5-0.4l-0.4,0.2c0,0-0.1-0.1-0.1-0.1     L3,138.9c-0.3,0.1-0.5,0-0.6-0.3c-0.1-0.3,0-0.5,0.3-0.6l13.1-4.6c0.5-0.2,1.1,0.1,1.3,0.5c0.1,0.3,0.2,0.6,0.1,0.9     c-0.1,0.3-0.3,0.5-0.6,0.6l-12.3,5.4C4.2,140.8,4.1,140.9,4.1,140.9z"></path>			</g>		</g>		<g>			<g>				<path class="st13" d="M-10.7,152.6c-0.8,0-1.4-0.6-1.4-1.4s0.6-1.4,1.4-1.4c0.8,0,1.4,0.6,1.4,1.4S-9.9,152.6-10.7,152.6z      M-10.7,150.9c-0.2,0-0.4,0.2-0.4,0.4c0,0.2,0.2,0.4,0.4,0.4c0.2,0,0.4-0.2,0.4-0.4C-10.3,151-10.5,150.9-10.7,150.9z"></path>			</g>		</g>		<g>			<g>				<path class="st13" d="M13.4,152.6c-0.8,0-1.4-0.6-1.4-1.4s0.6-1.4,1.4-1.4c0.8,0,1.4,0.6,1.4,1.4S14.1,152.6,13.4,152.6z      M13.4,150.9c-0.2,0-0.4,0.2-0.4,0.4c0,0.2,0.2,0.4,0.4,0.4c0.2,0,0.4-0.2,0.4-0.4C13.8,151,13.6,150.9,13.4,150.9z"></path>			</g>		</g>		<g>			<g>				<path class="st13" d="M1.1,143.7c-1.7,0-3.1-1.4-3.1-3.1c0-1.7,1.4-3.1,3.1-3.1c1.7,0,3.1,1.4,3.1,3.1     C4.3,142.3,2.9,143.7,1.1,143.7z M1.1,138.4c-1.2,0-2.1,1-2.1,2.1s1,2.1,2.1,2.1c1.2,0,2.1-1,2.1-2.1S2.3,138.4,1.1,138.4z"></path>			</g>		</g>	</g>	<g class="st15">		<g>			<g>				<g>					<path class="st13" d="M98.1,163.4c-0.3,0-0.5-0.2-0.5-0.5v-5c0-0.3,0.2-0.5,0.5-0.5c0.3,0,0.5,0.2,0.5,0.5v5      C98.6,163.2,98.4,163.4,98.1,163.4z"></path>				</g>			</g>			<g>				<g>					<path class="st13" d="M98.1,151c-0.3,0-0.5-0.2-0.5-0.5v-13.8c0-0.3,0.2-0.5,0.5-0.5c0.3,0,0.5,0.2,0.5,0.5v13.8      C98.6,150.7,98.4,151,98.1,151z"></path>				</g>			</g>			<g>				<g>					<path class="st13" d="M98.1,158.1c-2.1,0-3.8-1.7-3.8-3.8c0-2.1,1.7-3.8,3.8-3.8c2.1,0,3.8,1.7,3.8,3.8      C101.9,156.4,100.2,158.1,98.1,158.1z M98.1,151.5c-1.5,0-2.8,1.2-2.8,2.8c0,1.5,1.2,2.8,2.8,2.8c1.5,0,2.8-1.2,2.8-2.8      C100.9,152.8,99.6,151.5,98.1,151.5z"></path>				</g>			</g>		</g>		<g>			<g>				<g>					<path class="st13" d="M109.4,142.2c-0.3,0-0.5-0.2-0.5-0.5v-5.1c0-0.3,0.2-0.5,0.5-0.5c0.3,0,0.5,0.2,0.5,0.5v5.1      C109.9,142,109.7,142.2,109.4,142.2z"></path>				</g>			</g>			<g>				<g>					<path class="st13" d="M109.4,163.4c-0.3,0-0.5-0.2-0.5-0.5v-13.8c0-0.3,0.2-0.5,0.5-0.5c0.3,0,0.5,0.2,0.5,0.5v13.8      C109.9,163.2,109.7,163.4,109.4,163.4z"></path>				</g>			</g>			<g>				<g>					<path class="st13" d="M109.4,149.1c-2.1,0-3.8-1.7-3.8-3.8c0-2.1,1.7-3.8,3.8-3.8s3.8,1.7,3.8,3.8      C113.2,147.4,111.5,149.1,109.4,149.1z M109.4,142.5c-1.5,0-2.8,1.2-2.8,2.8c0,1.5,1.2,2.8,2.8,2.8c1.5,0,2.8-1.2,2.8-2.8      C112.2,143.8,110.9,142.5,109.4,142.5z"></path>				</g>			</g>		</g>		<g>			<g>				<g>					<path class="st13" d="M120.7,163.4c-0.3,0-0.5-0.2-0.5-0.5v-4.8c0-0.3,0.2-0.5,0.5-0.5c0.3,0,0.5,0.2,0.5,0.5v4.8      C121.2,163.2,121,163.4,120.7,163.4z"></path>				</g>			</g>			<g>				<g>					<path class="st13" d="M120.7,151.1c-0.3,0-0.5-0.2-0.5-0.5v-13.9c0-0.3,0.2-0.5,0.5-0.5c0.3,0,0.5,0.2,0.5,0.5v13.9      C121.2,150.8,121,151.1,120.7,151.1z"></path>				</g>			</g>			<g>				<g>					<path class="st13" d="M120.7,158.1c-2.1,0-3.8-1.7-3.8-3.8c0-2.1,1.7-3.8,3.8-3.8s3.8,1.7,3.8,3.8      C124.5,156.4,122.8,158.1,120.7,158.1z M120.7,151.5c-1.5,0-2.8,1.2-2.8,2.8c0,1.5,1.2,2.8,2.8,2.8c1.5,0,2.8-1.2,2.8-2.8      C123.5,152.8,122.2,151.5,120.7,151.5z"></path>				</g>			</g>		</g>	</g>	<g class="st15">		<g>			<g>				<g>					<path class="st13" d="M119.7,63.7H58.5c-0.3,0-0.5-0.2-0.5-0.5c0-0.3,0.2-0.5,0.5-0.5h60.8V49.3c0-1.3-1-2.3-2.3-2.3H31.6      c-1.3,0-2.3,1-2.3,2.3v13.5l3.6,0c0-0.3,0.2-0.5,0.5-0.5c0.3,0,0.5,0.2,0.5,0.5v0.5c0,0.3-0.2,0.5-0.5,0.5h-4.6      c-0.3,0-0.5-0.2-0.5-0.5v-14c0-1.8,1.5-3.3,3.3-3.3h85.3c1.8,0,3.3,1.5,3.3,3.3v14C120.2,63.5,120,63.7,119.7,63.7z"></path>				</g>			</g>		</g>		<g>			<g>				<g>					<path class="st13" d="M116.9,120.7H31.6c-1.8,0-3.3-1.5-3.3-3.3V63.2c0-0.3,0.2-0.5,0.5-0.5h4.1c0,0,0,0,0,0v-4.2      c0-1.1,0.9-1.9,1.9-1.9h22.3c1.1,0,1.9,0.9,1.9,1.9v4.2h60.8c0.3,0,0.5,0.2,0.5,0.5v54.2C120.2,119.2,118.7,120.7,116.9,120.7z       M29.3,63.7v53.7c0,1.3,1,2.3,2.3,2.3h85.3c1.3,0,2.3-1,2.3-2.3V63.7H58.5c-0.3,0-0.5-0.2-0.5-0.5l0-4.7c0-0.5-0.4-0.9-0.9-0.9      H34.8c-0.5,0-0.9,0.4-0.9,0.9v4.2c0,0.2-0.1,0.4-0.3,0.4c0,0,0,0,0,0.1c0,0.3-0.2,0.5-0.5,0.5H29.3z"></path>				</g>			</g>		</g>		<g>			<g>				<g>					<path class="st13" d="M37.7,54.6c-1.2,0-2.2-1-2.2-2.2c0-1.2,1-2.2,2.2-2.2c1.2,0,2.2,1,2.2,2.2C39.8,53.6,38.9,54.6,37.7,54.6      z M37.7,51.3c-0.6,0-1.2,0.5-1.2,1.2c0,0.6,0.5,1.2,1.2,1.2c0.6,0,1.2-0.5,1.2-1.2C38.8,51.8,38.3,51.3,37.7,51.3z"></path>				</g>			</g>			<g>				<g>					<path class="st13" d="M44.7,54.6c-1.2,0-2.2-1-2.2-2.2c0-1.2,1-2.2,2.2-2.2c1.2,0,2.2,1,2.2,2.2C46.9,53.6,45.9,54.6,44.7,54.6      z M44.7,51.3c-0.6,0-1.2,0.5-1.2,1.2c0,0.6,0.5,1.2,1.2,1.2s1.2-0.5,1.2-1.2C45.9,51.8,45.3,51.3,44.7,51.3z"></path>				</g>			</g>			<g>				<g>					<path class="st13" d="M51.7,54.6c-1.2,0-2.2-1-2.2-2.2c0-1.2,1-2.2,2.2-2.2c1.2,0,2.2,1,2.2,2.2C53.9,53.6,52.9,54.6,51.7,54.6      z M51.7,51.3c-0.6,0-1.2,0.5-1.2,1.2c0,0.6,0.5,1.2,1.2,1.2c0.6,0,1.2-0.5,1.2-1.2C52.9,51.8,52.4,51.3,51.7,51.3z"></path>				</g>			</g>		</g>		<g>			<g>				<path class="st13" d="M87.3,63.7H61.2v-5.1c0-1.1,0.9-1.9,1.9-1.9h22.3c1.1,0,1.9,0.9,1.9,1.9V63.7z M62.2,62.7h24.1v-4.1     c0-0.5-0.4-0.9-0.9-0.9H63.1c-0.5,0-0.9,0.4-0.9,0.9V62.7z"></path>			</g>		</g>		<g>			<g>				<path class="st13" d="M115.1,63.7H89v-5.1c0-1.1,0.9-1.9,1.9-1.9h22.3c1.1,0,1.9,0.9,1.9,1.9V63.7z M90,62.7h24.1v-4.1     c0-0.5-0.4-0.9-0.9-0.9H90.9c-0.5,0-0.9,0.4-0.9,0.9V62.7z"></path>			</g>		</g>		<g>			<g>				<path class="st13" d="M45.4,111.3h-5c-0.8,0-1.5-0.7-1.5-1.5V86.2c0-0.8,0.7-1.5,1.5-1.5h5c0.8,0,1.5,0.7,1.5,1.5v23.6     C46.9,110.6,46.3,111.3,45.4,111.3z M40.5,85.7c-0.3,0-0.5,0.2-0.5,0.5v23.6c0,0.3,0.2,0.5,0.5,0.5h5c0.3,0,0.5-0.2,0.5-0.5     V86.2c0-0.3-0.2-0.5-0.5-0.5H40.5z"></path>			</g>		</g>		<g>			<g>				<path class="st13" d="M56.1,111.3h-4.3c-1,0-1.8-0.8-1.8-1.8V87.9c0-1,0.8-1.8,1.8-1.8h4.3c1,0,1.8,0.8,1.8,1.8v21.6     C57.9,110.5,57.1,111.3,56.1,111.3z M51.8,87.1c-0.5,0-0.8,0.4-0.8,0.8v21.6c0,0.5,0.4,0.8,0.8,0.8h4.3c0.5,0,0.8-0.4,0.8-0.8     V87.9c0-0.5-0.4-0.8-0.8-0.8H51.8z"></path>			</g>		</g>		<g>			<g>				<path class="st13" d="M67,111.3h-4.1c-1,0-1.8-0.8-1.8-1.8v-9.2c0-1,0.8-1.8,1.8-1.8H67c1,0,1.8,0.8,1.8,1.8v9.2     C68.8,110.5,68,111.3,67,111.3z M62.9,99.6c-0.4,0-0.8,0.4-0.8,0.8v9.2c0,0.4,0.4,0.8,0.8,0.8H67c0.4,0,0.8-0.4,0.8-0.8v-9.2     c0-0.4-0.4-0.8-0.8-0.8H62.9z"></path>			</g>		</g>		<g>			<g>				<path class="st13" d="M78.1,111.3h-4.3c-1,0-1.8-0.8-1.8-1.8V87.9c0-1,0.8-1.8,1.8-1.8h4.3c1,0,1.8,0.8,1.8,1.8v21.6     C79.9,110.5,79.1,111.3,78.1,111.3z M73.8,87.1c-0.5,0-0.8,0.4-0.8,0.8v21.6c0,0.5,0.4,0.8,0.8,0.8h4.3c0.5,0,0.8-0.4,0.8-0.8     V87.9c0-0.5-0.4-0.8-0.8-0.8H73.8z"></path>			</g>		</g>		<g>			<g>				<path class="st13" d="M89.1,111.3h-4.3c-1,0-1.8-0.8-1.8-1.8V94.6c0-1,0.8-1.8,1.8-1.8h4.3c1,0,1.8,0.8,1.8,1.8v14.9     C90.9,110.5,90.1,111.3,89.1,111.3z M84.8,93.7c-0.5,0-0.8,0.4-0.8,0.8v14.9c0,0.5,0.4,0.8,0.8,0.8h4.3c0.5,0,0.8-0.4,0.8-0.8     V94.6c0-0.5-0.4-0.8-0.8-0.8H84.8z"></path>			</g>		</g>		<g>			<g>				<path class="st13" d="M100.1,111.3h-4.3c-1,0-1.8-0.8-1.8-1.8V75.9c0-1,0.8-1.8,1.8-1.8h4.3c1,0,1.8,0.8,1.8,1.8v33.6     C101.9,110.5,101.1,111.3,100.1,111.3z M95.8,75c-0.5,0-0.8,0.4-0.8,0.8v33.6c0,0.5,0.4,0.8,0.8,0.8h4.3c0.5,0,0.8-0.4,0.8-0.8     V75.9c0-0.5-0.4-0.8-0.8-0.8H95.8z"></path>			</g>		</g>		<g>			<g>				<path class="st13" d="M111.1,111.3h-4.3c-1,0-1.8-0.8-1.8-1.8V73.2c0-1,0.8-1.8,1.8-1.8h4.3c1,0,1.8,0.8,1.8,1.8v36.3     C112.9,110.5,112.1,111.3,111.1,111.3z M106.8,72.3c-0.5,0-0.8,0.4-0.8,0.8v36.3c0,0.5,0.4,0.8,0.8,0.8h4.3     c0.5,0,0.8-0.4,0.8-0.8V73.2c0-0.5-0.4-0.8-0.8-0.8H106.8z"></path>			</g>		</g>		<g>			<g>				<path class="st13" d="M112.7,115.3H34.8c-0.3,0-0.5-0.2-0.5-0.5V71.7c0-0.3,0.2-0.5,0.5-0.5c0.3,0,0.5,0.2,0.5,0.5v42.7h77.4     c0.3,0,0.5,0.2,0.5,0.5C113.2,115.1,113,115.3,112.7,115.3z"></path>			</g>		</g>	</g>	<g class="st15">		<g>			<path class="st13" d="M73.9,41.1c-0.3,0-0.5-0.2-0.5-0.5v-5c0-0.3,0.2-0.5,0.5-0.5c0.3,0,0.5,0.2,0.5,0.5v5    C74.4,40.9,74.2,41.1,73.9,41.1z M73.9,31.1c-0.3,0-0.5-0.2-0.5-0.5v-5c0-0.3,0.2-0.5,0.5-0.5c0.3,0,0.5,0.2,0.5,0.5v5    C74.4,30.9,74.2,31.1,73.9,31.1z M73.9,21.1c-0.3,0-0.5-0.2-0.5-0.5v-5c0-0.3,0.2-0.5,0.5-0.5c0.3,0,0.5,0.2,0.5,0.5v5    C74.4,20.9,74.2,21.1,73.9,21.1z M73.9,11.1c-0.3,0-0.5-0.2-0.5-0.5V7.7c0-0.3,0.2-0.5,0.5-0.5h2.2c0.3,0,0.5,0.2,0.5,0.5    c0,0.3-0.2,0.5-0.5,0.5h-1.7v2.3C74.4,10.9,74.2,11.1,73.9,11.1z M96.1,8.2h-5c-0.3,0-0.5-0.2-0.5-0.5c0-0.3,0.2-0.5,0.5-0.5h5    c0.3,0,0.5,0.2,0.5,0.5C96.6,8,96.4,8.2,96.1,8.2z M86.1,8.2h-5c-0.3,0-0.5-0.2-0.5-0.5c0-0.3,0.2-0.5,0.5-0.5h5    c0.3,0,0.5,0.2,0.5,0.5C86.6,8,86.4,8.2,86.1,8.2z"></path>		</g>	</g>	<path class="st29" d="M0.6,103.6v-5c0-0.3,0.2-0.5,0.5-0.5s0.5,0.2,0.5,0.5v5c0,0.3-0.2,0.5-0.5,0.5S0.6,103.8,0.6,103.6z"></path>	<path class="st29" d="M0.6,113.8v-5c0-0.3,0.2-0.5,0.5-0.5s0.5,0.2,0.5,0.5v5c0,0.3-0.2,0.5-0.5,0.5S0.6,114.1,0.6,113.8z"></path>	<path class="st29" d="M0.6,93.6v-5c0-0.3,0.2-0.5,0.5-0.5s0.5,0.2,0.5,0.5v5c0,0.3-0.2,0.5-0.5,0.5S0.6,93.8,0.6,93.6z"></path>	<path class="st29" d="M1,83.9c0-0.3,0.2-0.5,0.5-0.5h5c0.3,0,0.5,0.2,0.5,0.5c0,0.3-0.2,0.5-0.5,0.5h-5C1.2,84.4,1,84.2,1,83.9z"></path>	<path class="st29" d="M11,83.9c0-0.3,0.2-0.5,0.5-0.5h5c0.3,0,0.5,0.2,0.5,0.5c0,0.3-0.2,0.5-0.5,0.5h-5C11.2,84.4,11,84.2,11,83.9  z"></path>	<path class="st29" d="M21,83.9c0-0.3,0.2-0.5,0.5-0.5h5c0.3,0,0.5,0.2,0.5,0.5c0,0.3-0.2,0.5-0.5,0.5h-5C21.2,84.4,21,84.2,21,83.9  z"></path>	<g class="st15">		<g>			<g>				<path class="st30" d="M120.2,21c-4,0-7.7-2.2-9.6-5.8c-0.1-0.2,0-0.5,0.2-0.6c0.2-0.1,0.5,0,0.6,0.2c1.7,3.2,5,5.3,8.7,5.3     c5.4,0,9.8-4.4,9.8-9.8c0-0.3,0.2-0.5,0.5-0.5c0.3,0,0.5,0.2,0.5,0.5C130.9,16.1,126.1,21,120.2,21z"></path>			</g>		</g>		<g>			<g>				<path class="st30" d="M127.1,14c-0.1,0-0.2,0-0.3-0.1c-0.2-0.2-0.2-0.5,0-0.7l3.4-3.4c0.2-0.2,0.5-0.2,0.7,0l3.4,3.4     c0.2,0.2,0.2,0.5,0,0.7c-0.2,0.2-0.5,0.2-0.7,0l-3-3l-3,3C127.3,14,127.2,14,127.1,14z"></path>			</g>		</g>	</g>	<g class="st15">		<g>			<g>				<path class="st30" d="M109.9,10.7c-0.3,0-0.5-0.2-0.5-0.5c0-5.9,4.8-10.8,10.8-10.8c4,0,7.7,2.2,9.6,5.8c0.1,0.2,0,0.5-0.2,0.6     c-0.2,0.1-0.5,0-0.6-0.2c-1.7-3.3-5-5.3-8.7-5.3c-5.4,0-9.8,4.4-9.8,9.8C110.3,10.5,110.1,10.7,109.9,10.7z"></path>			</g>		</g>		<g>			<g>				<path class="st30" d="M109.9,10.7c-0.1,0-0.2,0-0.3-0.1l-3.4-3.4c-0.2-0.2-0.2-0.5,0-0.7c0.2-0.2,0.5-0.2,0.7,0l3,3l3-3     c0.2-0.2,0.5-0.2,0.7,0c0.2,0.2,0.2,0.5,0,0.7l-3.4,3.4C110.1,10.6,110,10.7,109.9,10.7z"></path>			</g>		</g>	</g>	<g class="st15">		<g>			<path class="st13" d="M63.7,141.6H34.8c-0.3,0-0.5-0.2-0.5-0.5s0.2-0.5,0.5-0.5h28.9c0.3,0,0.5,0.2,0.5,0.5S64,141.6,63.7,141.6z    "></path>		</g>	</g>	<g class="st15">		<g>			<path class="st13" d="M71.3,145.6h-19c-0.3,0-0.5-0.2-0.5-0.5c0-0.3,0.2-0.5,0.5-0.5h19c0.3,0,0.5,0.2,0.5,0.5    C71.8,145.4,71.6,145.6,71.3,145.6z"></path>		</g>	</g>	<g class="st15">		<g>			<path class="st13" d="M70.2,155.6c-0.2,0-0.3-0.1-0.4-0.2c-0.2-0.2-0.1-0.5,0.1-0.7l4.5-3.2l-4.5-3.5c-0.2-0.2-0.3-0.5-0.1-0.7    c0.2-0.2,0.5-0.3,0.7-0.1l5,3.9c0.1,0.1,0.2,0.2,0.2,0.4c0,0.2-0.1,0.3-0.2,0.4l-5,3.6C70.4,155.5,70.3,155.6,70.2,155.6z"></path>		</g>	</g></g><g id="Cloud_Automation" class="st14">	<path class="st27" d="M35.3,119.1H20.1c-0.1,0-0.2-0.1-0.3-0.2l-3.5-5.3c-0.6-0.9-1.6-1.5-2.6-1.5H-1.7c-1.7,0-3.1,1.4-3.1,3.1  v27.3c0,1.7,1.4,3.1,3.1,3.1h36.9c1.7,0,3.1-1.4,3.1-3.1v-20.3C38.4,120.5,37,119.1,35.3,119.1z"></path>	<g class="st15">		<g>			<g>				<g>					<path class="st13" d="M39.8,144.4h-2.4c-0.3,0-0.5-0.2-0.5-0.5c0-0.3,0.2-0.5,0.5-0.5h2.4c1.1,0,2-0.9,2-2v-27.3      c0-1.1-0.9-2-2-2H24.4c-0.7,0-1.3,0.3-1.7,0.9l-3.5,5.4c-0.2,0.3-0.5,0.3-0.8,0.2c-0.3-0.2-0.3-0.5-0.2-0.8l3.5-5.3      c0.6-0.9,1.5-1.4,2.6-1.4h15.4c1.7,0,3.1,1.4,3.1,3.1v27.3C42.9,143,41.5,144.4,39.8,144.4z"></path>				</g>			</g>		</g>		<g>			<g>				<path class="st13" d="M-4.8,116.6h-18.5c-0.8,0-1.5-0.7-1.5-1.5v-14.3c0-0.8,0.7-1.5,1.5-1.5h10.5c0.5,0,1,0.3,1.3,0.7l1.9,3     c0.1,0.1,0.2,0.2,0.4,0.2h6.5c0.8,0,1.5,0.7,1.5,1.5v8c0,0.3-0.2,0.5-0.5,0.5c-0.3,0-0.5-0.2-0.5-0.5v-8c0-0.2-0.2-0.4-0.4-0.4     h-6.5c-0.5,0-1-0.3-1.3-0.7l-1.9-3c-0.1-0.1-0.2-0.2-0.4-0.2h-10.5c-0.2,0-0.4,0.2-0.4,0.4V115c0,0.2,0.2,0.4,0.4,0.4h18.5     c0.3,0,0.5,0.2,0.5,0.5C-4.2,116.3-4.5,116.6-4.8,116.6z"></path>			</g>		</g>		<g>			<g>				<g>					<path class="st13" d="M-13,131c-0.3,0-0.5-0.2-0.5-0.5v-14.1c0-0.3,0.2-0.5,0.5-0.5c0.3,0,0.5,0.2,0.5,0.5v14.1      C-12.5,130.8-12.7,131-13,131z"></path>				</g>			</g>			<g>				<g>					<path class="st13" d="M-4.2,134.1h-5.7c-0.3,0-0.5-0.2-0.5-0.5c0-0.3,0.2-0.5,0.5-0.5h5.7c0.3,0,0.5,0.2,0.5,0.5      C-3.7,133.9-3.9,134.1-4.2,134.1z"></path>				</g>			</g>			<g>				<g>					<path class="st13" d="M-13,137.2c-2,0-3.7-1.6-3.7-3.7c0-2,1.6-3.7,3.7-3.7s3.7,1.6,3.7,3.7C-9.4,135.6-11,137.2-13,137.2z       M-13,131c-1.4,0-2.6,1.1-2.6,2.6c0,1.4,1.1,2.6,2.6,2.6s2.6-1.1,2.6-2.6C-10.5,132.2-11.6,131-13,131z"></path>				</g>			</g>		</g>		<g>			<g>				<g>					<path class="st13" d="M35.3,145.6H-1.7c-1.7,0-3.1-1.4-3.1-3.1v-27.3c0-1.7,1.4-3.1,3.1-3.1h15.4c1.1,0,2.1,0.5,2.6,1.5      l3.5,5.3c0.1,0.1,0.1,0.2,0.3,0.2h15.1c1.7,0,3.1,1.4,3.1,3.1v20.3C38.4,144.2,37,145.6,35.3,145.6z M-1.7,113.2      c-1.1,0-2,0.9-2,2v27.3c0,1.1,0.9,2,2,2h36.9c1.1,0,2-0.9,2-2v-20.3c0-1.1-0.9-2-2-2H20.1c-0.5,0-0.9-0.3-1.2-0.7l-3.5-5.3      c-0.4-0.6-1-1-1.7-1H-1.7z"></path>				</g>			</g>		</g>	</g>	<g class="st15">		<g>			<path class="st13" d="M32.2,132.7H21.9c-0.3,0-0.5-0.2-0.5-0.5c0-0.3,0.2-0.5,0.5-0.5h10.3c0.3,0,0.5,0.2,0.5,0.5    C32.8,132.5,32.5,132.7,32.2,132.7z"></path>		</g>	</g>	<g class="st15">		<g>			<path class="st13" d="M32.2,136.2H21.9c-0.3,0-0.5-0.2-0.5-0.5c0-0.3,0.2-0.5,0.5-0.5h10.3c0.3,0,0.5,0.2,0.5,0.5    C32.8,135.9,32.5,136.2,32.2,136.2z"></path>		</g>	</g>	<g class="st15">		<g>			<path class="st13" d="M25.4,139.6h-3.5c-0.3,0-0.5-0.2-0.5-0.5s0.2-0.5,0.5-0.5h3.5c0.3,0,0.5,0.2,0.5,0.5S25.7,139.6,25.4,139.6    z"></path>		</g>	</g>	<g class="st15">		<g>			<path class="st13" d="M17.1,134.5c-1.3,0-2.4-1.1-2.4-2.4c0-1.3,1.1-2.4,2.4-2.4c1.3,0,2.4,1.1,2.4,2.4    C19.4,133.5,18.4,134.5,17.1,134.5z M17.1,130.9c-0.7,0-1.3,0.6-1.3,1.3c0,0.7,0.6,1.3,1.3,1.3c0.7,0,1.3-0.6,1.3-1.3    C18.3,131.5,17.8,130.9,17.1,130.9z"></path>		</g>	</g>	<g class="st15">		<g>			<path class="st13" d="M21.1,108.5c-0.3,0-0.5-0.2-0.5-0.5v-5.5c0-0.3,0.2-0.5,0.5-0.5c0.3,0,0.5,0.2,0.5,0.5v5.5    C21.6,108.3,21.4,108.5,21.1,108.5z M59.7,97.7h-5.5c-0.3,0-0.5-0.2-0.5-0.5c0-0.3,0.2-0.5,0.5-0.5h5.5c0.3,0,0.5,0.2,0.5,0.5    C60.3,97.4,60,97.7,59.7,97.7z M48.7,97.7h-5.5c-0.3,0-0.5-0.2-0.5-0.5c0-0.3,0.2-0.5,0.5-0.5h5.5c0.3,0,0.5,0.2,0.5,0.5    C49.3,97.4,49,97.7,48.7,97.7z M37.7,97.7h-5.5c-0.3,0-0.5-0.2-0.5-0.5c0-0.3,0.2-0.5,0.5-0.5h5.5c0.3,0,0.5,0.2,0.5,0.5    C38.3,97.4,38,97.7,37.7,97.7z M26.7,97.7h-5.5c-0.3,0-0.5-0.2-0.5-0.5c0-0.3,0.2-0.5,0.5-0.5h5.5c0.3,0,0.5,0.2,0.5,0.5    C27.3,97.4,27,97.7,26.7,97.7z"></path>		</g>	</g>	<g class="st15">		<g>			<path class="st13" d="M67.1,104.9c-3.9,0-7.1-3.2-7.1-7.1c0-3.9,3.2-7.1,7.1-7.1c3.9,0,7.1,3.2,7.1,7.1    C74.2,101.7,71.1,104.9,67.1,104.9z M67.1,91.8c-3.3,0-6,2.7-6,6c0,3.3,2.7,6,6,6c3.3,0,6-2.7,6-6C73.1,94.5,70.4,91.8,67.1,91.8    z"></path>		</g>	</g>	<g class="st15">		<g>			<path class="st13" d="M101.8,97.7h-5.5c-0.3,0-0.5-0.2-0.5-0.5s0.2-0.5,0.5-0.5h5.5c0.3,0,0.5,0.2,0.5,0.5S102.1,97.7,101.8,97.7    z M90.8,97.7h-5.5c-0.3,0-0.5-0.2-0.5-0.5s0.2-0.5,0.5-0.5h5.5c0.3,0,0.5,0.2,0.5,0.5S91.1,97.7,90.8,97.7z M79.8,97.7h-5.5    c-0.3,0-0.5-0.2-0.5-0.5s0.2-0.5,0.5-0.5h5.5c0.3,0,0.5,0.2,0.5,0.5S80.1,97.7,79.8,97.7z"></path>		</g>	</g>	<g class="st15">		<g>			<g>				<g>					<g>						<g>							<path class="st13" d="M144.2,161.7h-1.6c-0.3,0-0.5-0.2-0.5-0.5c0-0.3,0.2-0.5,0.5-0.5h1.6c0.7,0,1.3-0.6,1.3-1.3v-22        c0-0.7-0.6-1.3-1.3-1.3h-13.6c-0.7,0-1.3,0.6-1.3,1.3v1.8c0,0.3-0.2,0.5-0.5,0.5c-0.3,0-0.5-0.2-0.5-0.5v-1.8        c0-1.3,1.1-2.4,2.4-2.4h13.6c1.3,0,2.4,1.1,2.4,2.4v22C146.6,160.6,145.5,161.7,144.2,161.7z"></path>						</g>					</g>				</g>			</g>		</g>		<g>			<g>				<g>					<g>						<g>							<path class="st13" d="M140.2,164.7l-14,0c-0.7,0-1.4-0.3-1.9-0.8c-0.5-0.5-0.8-1.2-0.8-1.9l0.1-17.8c0-0.3,0.2-0.5,0.5-0.5        c0,0,0,0,0,0c0.3,0,0.5,0.2,0.5,0.6l-0.1,17.8c0,0.9,0.7,1.6,1.6,1.6l14,0c0.9,0,1.6-0.7,1.6-1.6l0.1-21.2        c0-0.9-0.7-1.6-1.6-1.6l-10.4,0c-0.3,0-0.5-0.2-0.5-0.6c0-0.3,0.2-0.5,0.5-0.5h0l10.4,0c1.5,0,2.7,1.2,2.7,2.7l-0.1,21.2        C142.8,163.5,141.6,164.7,140.2,164.7z"></path>						</g>					</g>				</g>			</g>		</g>		<g>			<g>				<path class="st13" d="M129.2,145.2C129.2,145.2,129.2,145.2,129.2,145.2l-5.1,0c-0.2,0-0.4-0.1-0.5-0.3c0-0.1-0.1-0.2-0.1-0.3     c0,0,0-0.1,0-0.4c0-0.6,0.2-1.3,0.7-1.7l4-3.8c0.4-0.4,1-0.6,1.6-0.7c0.3,0,0.4,0,0.4,0c0.1,0,0.3,0.1,0.4,0.2     c0.1,0.1,0.2,0.2,0.2,0.4l0,5C130.9,144.5,130.1,145.2,129.2,145.2z M124.7,144.1l4.6,0l0,0c0,0,0,0,0,0c0.3,0,0.5-0.2,0.5-0.5     l0-4.4c-0.2,0-0.5,0.1-0.8,0.3l-4,3.8C124.8,143.5,124.7,143.8,124.7,144.1z"></path>			</g>		</g>	</g>	<g class="st15">		<g>			<path class="st13" d="M136.8,128.1c-0.3,0-0.5-0.2-0.5-0.5v-5.5c0-0.3,0.2-0.5,0.5-0.5c0.3,0,0.5,0.2,0.5,0.5v5.5    C137.4,127.9,137.2,128.1,136.8,128.1z M136.8,117.1c-0.3,0-0.5-0.2-0.5-0.5v-5.5c0-0.3,0.2-0.5,0.5-0.5c0.3,0,0.5,0.2,0.5,0.5    v5.5C137.4,116.9,137.2,117.1,136.8,117.1z M136.8,106.1c-0.3,0-0.5-0.2-0.5-0.5v-5.5c0-0.3,0.2-0.5,0.5-0.5    c0.3,0,0.5,0.2,0.5,0.5v5.5C137.4,105.9,137.2,106.1,136.8,106.1z M134.3,97.7h-5.5c-0.3,0-0.5-0.2-0.5-0.5s0.2-0.5,0.5-0.5h5.5    c0.3,0,0.5,0.2,0.5,0.5S134.6,97.7,134.3,97.7z M123.3,97.7h-5.5c-0.3,0-0.5-0.2-0.5-0.5s0.2-0.5,0.5-0.5h5.5    c0.3,0,0.5,0.2,0.5,0.5S123.6,97.7,123.3,97.7z M112.3,97.7h-5.5c-0.3,0-0.5-0.2-0.5-0.5s0.2-0.5,0.5-0.5h5.5    c0.3,0,0.5,0.2,0.5,0.5S112.6,97.7,112.3,97.7z"></path>		</g>	</g>	<g class="st15">		<g id="XMLID_00000102546829523103052950000017969040604529626769_">			<g>				<g>					<g>						<path class="st13" d="M26.4,27.2H2.3c-4.7,0-8.5-3.8-8.5-8.5c0-3.4,2.1-6.5,5.2-7.9c-0.1-0.7-0.1-1.4-0.1-2.1       c0-10.2,8.3-18.5,18.5-18.5c6.3,0,12,3.1,15.5,8.3c0.7-0.1,1.5-0.2,2.3-0.2c6,0,11.3,3.9,13.1,9.5c1.1-0.4,2.2-0.6,3.4-0.6       c2.8,0,5.5,1.2,7.4,3.3l-0.8,0.7c-1.7-1.8-4.1-2.9-6.6-2.9c-1.2,0-2.4,0.3-3.6,0.8l-0.6,0.3l-0.2-0.6       c-1.5-5.5-6.5-9.3-12.2-9.3c-0.8,0-1.6,0.1-2.4,0.2l-0.4,0.1l-0.2-0.3c-3.2-5.1-8.7-8.1-14.7-8.1C7.8-8.7,0-0.9,0,8.7       c0,0.8,0.1,1.6,0.2,2.4l0.1,0.4l-0.4,0.2c-2.9,1.1-4.9,3.9-4.9,7c0,4.1,3.3,7.4,7.4,7.4h24.1V27.2z"></path>					</g>				</g>			</g>		</g>		<g>			<g>				<g>					<path class="st13" d="M109.5,65.8H27.2C16.2,65.8,7.3,56.9,7.3,46c0-10.9,8.9-19.8,19.8-19.8c1.3,0,2.6,0.1,3.8,0.4      c4.3-9.3,13.6-15.3,23.8-15.3c0.8,0,1.5,0,2.3,0.1C63.5,2.7,73.7-2.4,84.4-2.4c18.8,0,34.1,15.3,34.1,34.1c0,0.5,0,1.1,0,1.6      c5.3,3.2,8.5,8.9,8.5,15C127,58,119.1,65.8,109.5,65.8z M27.2,27.2C16.8,27.2,8.4,35.6,8.4,46c0,10.3,8.4,18.7,18.7,18.7h82.3      c9,0,16.4-7.3,16.4-16.4c0-5.8-3.2-11.3-8.2-14.2l-0.3-0.2l0-0.3c0-0.6,0.1-1.3,0.1-1.9c0-18.2-14.8-33-33-33      c-10.5,0-20.4,5-26.6,13.5l-0.2,0.3l-0.3,0c-0.8-0.1-1.7-0.1-2.5-0.1c-10,0-19,5.9-23,15l-0.2,0.4l-0.4-0.1      C29.9,27.4,28.5,27.2,27.2,27.2z"></path>				</g>			</g>		</g>		<g>							<linearGradient id="SVGID_00000137100049604931741140000006308852573101924999_" gradientUnits="userSpaceOnUse" x1="41.7095" y1="32.3561" x2="92.1536" y2="32.3561">				<stop offset="0" style="stop-color:#1B4E95"></stop>				<stop offset="0.216" style="stop-color:#255CA4"></stop>				<stop offset="0.6325" style="stop-color:#417FCD"></stop>				<stop offset="1" style="stop-color:#5CA3F5"></stop>			</linearGradient>			<path style="fill:url(#SVGID_00000137100049604931741140000006308852573101924999_);" d="M94.3,31.4c0-0.3-0.2-0.6-0.6-0.7    L90,29.6c-0.1-0.6-0.3-1.2-0.6-1.7l2.4-3.1c0.2-0.3,0.2-0.6,0-0.9c-0.3-0.5-0.7-1.1-1.1-1.6c-0.2-0.3-0.6-0.4-0.9-0.2l-3.7,1.3    c-0.5-0.4-1-0.8-1.5-1.1l0.1-3.9c0-0.3-0.2-0.6-0.5-0.8c-0.6-0.2-1.2-0.4-1.8-0.6c-0.3-0.1-0.7,0-0.9,0.3l-2.2,3.2    c-0.6-0.1-1.2-0.1-1.8,0l-2.2-3.2c-0.2-0.3-0.5-0.4-0.9-0.3c-0.6,0.2-1.2,0.4-1.8,0.6c-0.3,0.1-0.5,0.4-0.5,0.8l0.1,3.9    c-0.5,0.3-1,0.7-1.5,1.1L67.1,22c-0.3-0.1-0.7,0-0.9,0.2c-0.4,0.5-0.8,1-1.1,1.6c-0.2,0.3-0.2,0.6,0,0.9l2.4,3.1    c-0.2,0.6-0.4,1.1-0.6,1.7l-3.7,1.1c-0.3,0.1-0.5,0.4-0.6,0.7c0,0.3,0,0.6,0,1c0,0.3,0,0.6,0,1c0,0.3,0.2,0.6,0.6,0.7l3.7,1.1    c0.1,0.6,0.3,1.2,0.6,1.7L65.2,40c-0.2,0.3-0.2,0.6,0,0.9c0.3,0.5,0.7,1.1,1.1,1.6c0.2,0.3,0.6,0.4,0.9,0.2l3.7-1.3    c0.5,0.4,1,0.8,1.5,1.1l-0.1,3.9c0,0.3,0.2,0.6,0.5,0.8c0.6,0.2,1.2,0.4,1.8,0.6c0.1,0,0.1,0,0.2,0c0.3,0,0.5-0.1,0.7-0.3    l2.2-3.2c0.6,0,1.2,0,1.8,0l2.2,3.2c0.2,0.3,0.5,0.4,0.9,0.3c0.6-0.2,1.2-0.4,1.8-0.6c0.3-0.1,0.5-0.4,0.5-0.8l-0.1-3.9    c0.5-0.3,1-0.7,1.5-1.1l3.7,1.3c0.3,0.1,0.7,0,0.9-0.2c0.4-0.5,0.8-1,1.1-1.6c0.2-0.3,0.2-0.6,0-0.9l-2.4-3.1    c0.2-0.6,0.4-1.1,0.6-1.7l3.7-1.1c0.3-0.1,0.6-0.4,0.6-0.7c0-0.3,0-0.6,0-1C94.4,32,94.3,31.7,94.3,31.4z M84.3,32.4    c0,3.2-2.6,5.8-5.8,5.8c-3.2,0-5.8-2.6-5.8-5.8c0-3.2,2.6-5.8,5.8-5.8C81.7,26.5,84.3,29.1,84.3,32.4z"></path>		</g>		<g>							<linearGradient id="SVGID_00000003801612100107751810000000827577942469626262_" gradientUnits="userSpaceOnUse" x1="41.7095" y1="44.4121" x2="92.1536" y2="44.4121">				<stop offset="0" style="stop-color:#1B4E95"></stop>				<stop offset="0.186" style="stop-color:#316BB6"></stop>				<stop offset="0.3872" style="stop-color:#4483D1"></stop>				<stop offset="0.5903" style="stop-color:#5195E5"></stop>				<stop offset="0.794" style="stop-color:#599FF1"></stop>				<stop offset="1" style="stop-color:#5CA3F5"></stop>			</linearGradient>			<path style="fill:url(#SVGID_00000003801612100107751810000000827577942469626262_);" d="M65.6,43.7c0-0.3-0.2-0.6-0.6-0.7    l-2.6-0.8c-0.1-0.4-0.2-0.7-0.3-1.1l1.6-2.1c0.2-0.3,0.2-0.6,0-0.9c-0.3-0.4-0.5-0.8-0.8-1.1c-0.2-0.3-0.6-0.4-0.9-0.2l-2.5,0.9    c-0.3-0.2-0.6-0.5-0.9-0.7l0.1-2.7c0-0.3-0.2-0.6-0.5-0.8c-0.4-0.2-0.9-0.3-1.3-0.4c-0.3-0.1-0.7,0-0.9,0.3l-1.5,2.2    c-0.4,0-0.7,0-1.1,0l-1.5-2.2c-0.2-0.3-0.5-0.4-0.9-0.3c-0.5,0.1-0.9,0.3-1.3,0.4c-0.3,0.1-0.5,0.4-0.5,0.8l0.1,2.7    c-0.3,0.2-0.6,0.4-0.9,0.7l-2.5-0.9c-0.3-0.1-0.7,0-0.9,0.2c-0.3,0.4-0.6,0.8-0.8,1.1c-0.2,0.3-0.2,0.6,0,0.9l1.6,2.1    c-0.1,0.3-0.3,0.7-0.3,1.1L42.8,43c-0.3,0.1-0.5,0.4-0.6,0.7c0,0.2,0,0.5,0,0.7s0,0.5,0,0.7c0,0.3,0.2,0.6,0.6,0.7l2.6,0.8    c0.1,0.4,0.2,0.7,0.3,1.1l-1.6,2.1c-0.2,0.3-0.2,0.6,0,0.9c0.3,0.4,0.5,0.8,0.8,1.1c0.2,0.3,0.6,0.4,0.9,0.2l2.5-0.9    c0.3,0.2,0.6,0.5,0.9,0.6l-0.1,2.7c0,0.3,0.2,0.6,0.5,0.8c0.4,0.2,0.9,0.3,1.3,0.4c0.1,0,0.1,0,0.2,0c0.3,0,0.5-0.1,0.7-0.3    l1.5-2.2c0.4,0,0.7,0,1.1,0l1.5,2.2c0.2,0.3,0.5,0.4,0.9,0.3c0.5-0.1,0.9-0.3,1.3-0.4c0.3-0.1,0.5-0.4,0.5-0.8l-0.1-2.7    c0.3-0.2,0.6-0.4,0.9-0.6l2.5,0.9c0.3,0.1,0.7,0,0.9-0.2c0.3-0.4,0.6-0.7,0.8-1.1c0.2-0.3,0.2-0.6,0-0.9l-1.6-2.1    c0.1-0.3,0.3-0.7,0.3-1.1l2.6-0.8c0.3-0.1,0.5-0.4,0.6-0.7c0-0.2,0-0.5,0-0.7S65.6,43.9,65.6,43.7z M57.9,44.4c0,2.2-1.8,4-4,4    c-2.2,0-4-1.8-4-4c0-2.2,1.8-4,4-4C56.1,40.4,57.9,42.2,57.9,44.4z"></path>		</g>	</g>	<line class="st33" x1="67.1" y1="65.8" x2="67.1" y2="90.7"></line></g></svg>